<svg width="95" height="27" viewBox="0 0 95 27" fill="none" xmlns="http://www.w3.org/2000/svg">
<path fill-rule="evenodd" clip-rule="evenodd" d="M94.4698 16.6363C94.4698 20.1682 91.5823 22.65 86.6903 22.65C81.9176 22.65 78.6005 20.1443 78.6005 15.8727H82.7766C82.8482 17.9727 84.2801 19.2136 86.7857 19.2136C89.2437 19.2136 90.6039 18.2352 90.6039 16.6841C90.6039 14.8609 88.5404 14.6413 86.1651 14.3885C82.9439 14.0456 79.1494 13.6417 79.1494 9.09543C79.1494 5.51589 82.013 3.27271 86.571 3.27271C91.0812 3.27271 94.2551 5.65907 94.2551 9.47725H90.1505C90.0073 7.73521 88.7187 6.70907 86.4994 6.70907C84.2323 6.70907 82.9914 7.56816 82.9914 9.04771C82.9914 10.8066 85.0045 11.0044 87.3446 11.2343C90.5923 11.5535 94.4698 11.9345 94.4698 16.6363ZM39.1216 22.2682L43.3454 8.99998L47.6647 22.2682H51.7693L57.3772 3.65452H53.2727L49.6454 17.3523L45.5886 3.65452H41.0545L37.117 17.3284L33.5136 3.65452H29.4091L35.017 22.2682H39.1216ZM70.1605 22.2682L77.4627 3.65452H73.6446L68.1321 17.9488L62.6434 3.65452H58.8014L66.1275 22.2682H70.1605Z" fill="white"/>
<mask id="path-2-outside-1_802_117635" maskUnits="userSpaceOnUse" x="0" y="0" width="22" height="27" fill="black">
<rect fill="white" width="22" height="27"/>
<path fill-rule="evenodd" clip-rule="evenodd" d="M15.947 6.8636C16.6233 6.43484 17.2933 6.01013 17.9633 5.57154C17.9777 5.55852 17.9901 5.54296 18 5.52547C17.996 5.51203 17.991 5.49904 17.9849 5.48666L17.9006 5.43088L11.0243 1.00935C11.0148 1.00324 11.0037 1 10.9924 1H10.9471L4.0432 5.41876C4.02667 5.43328 4.01212 5.45044 4 5.46968C4.01852 5.49041 4.03878 5.50909 4.06048 5.52547L6.23577 6.92482L10.9082 3.87874C11.5621 4.30131 12.2134 4.72348 12.8642 5.14526C13.8194 5.76436 14.7733 6.38261 15.7318 7C15.8036 6.95447 15.8753 6.90901 15.947 6.8636ZM13.6835 11.5639L13.6834 11.564L13.6825 11.5645C12.8122 12.0708 11.9411 12.5776 11.067 13.0828C8.10898 11.3841 5.15994 9.68981 2.21983 8C1.7974 8.212 1.38985 8.45246 1 8.71973V20.1371C1.00268 20.1723 1.00716 20.2074 1.0134 20.2421C4.34076 22.1659 7.66364 24.0852 10.9821 26C11.2859 25.8838 20.6983 20.4746 20.9798 20.2511C21.011 19.9762 21.0021 8.78455 20.9798 8.62809L19.885 8C17.8048 9.16635 15.7467 10.3636 13.6836 11.5639L13.6835 11.5639ZM9.85606 15.1526V22.5511C9.8269 22.5474 9.79836 22.5399 9.77116 22.5287L3.39721 18.863C3.37934 18.8407 3.37934 18.8273 3.37934 18.8273C3.37834 18.8214 3.37834 18.8153 3.37934 18.8094V17.0615L3.39275 11.4958C3.39556 11.4826 3.40006 11.4699 3.40615 11.4578C3.45901 11.4437 3.49937 11.4714 3.53818 11.4979C3.54857 11.505 3.55886 11.5121 3.56924 11.5182L4.99461 12.3407L9.63265 15.0096L9.85606 15.1526ZM12.2734 15.1526V15.3426V16.8692C12.2734 18.0613 12.2682 19.2602 12.2577 20.4657V22.4349C12.2577 22.4415 12.2571 22.4485 12.2565 22.4558C12.2537 22.4873 12.2507 22.5221 12.298 22.5422L12.4521 22.4617L14.5857 21.2189L18.4619 18.9524C18.5371 18.9196 18.6048 18.8717 18.6607 18.8116V11.5003C18.6607 11.5003 18.6607 11.478 18.6406 11.4645C18.6229 11.4612 18.6047 11.4612 18.587 11.4645L12.2734 15.1526Z"/>
</mask>
<path fill-rule="evenodd" clip-rule="evenodd" d="M15.947 6.8636C16.6233 6.43484 17.2933 6.01013 17.9633 5.57154C17.9777 5.55852 17.9901 5.54296 18 5.52547C17.996 5.51203 17.991 5.49904 17.9849 5.48666L17.9006 5.43088L11.0243 1.00935C11.0148 1.00324 11.0037 1 10.9924 1H10.9471L4.0432 5.41876C4.02667 5.43328 4.01212 5.45044 4 5.46968C4.01852 5.49041 4.03878 5.50909 4.06048 5.52547L6.23577 6.92482L10.9082 3.87874C11.5621 4.30131 12.2134 4.72348 12.8642 5.14526C13.8194 5.76436 14.7733 6.38261 15.7318 7C15.8036 6.95447 15.8753 6.90901 15.947 6.8636ZM13.6835 11.5639L13.6834 11.564L13.6825 11.5645C12.8122 12.0708 11.9411 12.5776 11.067 13.0828C8.10898 11.3841 5.15994 9.68981 2.21983 8C1.7974 8.212 1.38985 8.45246 1 8.71973V20.1371C1.00268 20.1723 1.00716 20.2074 1.0134 20.2421C4.34076 22.1659 7.66364 24.0852 10.9821 26C11.2859 25.8838 20.6983 20.4746 20.9798 20.2511C21.011 19.9762 21.0021 8.78455 20.9798 8.62809L19.885 8C17.8048 9.16635 15.7467 10.3636 13.6836 11.5639L13.6835 11.5639ZM9.85606 15.1526V22.5511C9.8269 22.5474 9.79836 22.5399 9.77116 22.5287L3.39721 18.863C3.37934 18.8407 3.37934 18.8273 3.37934 18.8273C3.37834 18.8214 3.37834 18.8153 3.37934 18.8094V17.0615L3.39275 11.4958C3.39556 11.4826 3.40006 11.4699 3.40615 11.4578C3.45901 11.4437 3.49937 11.4714 3.53818 11.4979C3.54857 11.505 3.55886 11.5121 3.56924 11.5182L4.99461 12.3407L9.63265 15.0096L9.85606 15.1526ZM12.2734 15.1526V15.3426V16.8692C12.2734 18.0613 12.2682 19.2602 12.2577 20.4657V22.4349C12.2577 22.4415 12.2571 22.4485 12.2565 22.4558C12.2537 22.4873 12.2507 22.5221 12.298 22.5422L12.4521 22.4617L14.5857 21.2189L18.4619 18.9524C18.5371 18.9196 18.6048 18.8717 18.6607 18.8116V11.5003C18.6607 11.5003 18.6607 11.478 18.6406 11.4645C18.6229 11.4612 18.6047 11.4612 18.587 11.4645L12.2734 15.1526Z" fill="url(#paint0_linear_802_117635)"/>
<path d="M17.9633 5.57154L18.0728 5.73888L18.0859 5.7303L18.0975 5.71979L17.9633 5.57154ZM15.947 6.8636L15.8399 6.69468L15.8399 6.69468L15.947 6.8636ZM18 5.52547L18.1739 5.62426L18.2158 5.55041L18.1918 5.46894L18 5.52547ZM17.9849 5.48666L18.1643 5.39824L18.1404 5.34975L18.0953 5.3199L17.9849 5.48666ZM17.9006 5.43088L18.0111 5.26411L18.0088 5.26266L17.9006 5.43088ZM11.0243 1.00935L10.9161 1.17757L10.9161 1.17757L11.0243 1.00935ZM10.9471 1V0.8H10.8886L10.8393 0.831549L10.9471 1ZM4.0432 5.41876L3.93539 5.2503L3.92258 5.2585L3.91116 5.26854L4.0432 5.41876ZM4 5.46968L3.83077 5.3631L3.75046 5.49061L3.85088 5.60296L4 5.46968ZM4.06048 5.52547L3.94003 5.68513L3.946 5.68963L3.95228 5.69367L4.06048 5.52547ZM6.23577 6.92482L6.12756 7.09302L6.23649 7.16309L6.34499 7.09236L6.23577 6.92482ZM10.9082 3.87874L11.0168 3.71076L10.9077 3.6403L10.799 3.7112L10.9082 3.87874ZM12.8642 5.14526L12.973 4.97742L12.973 4.97742L12.8642 5.14526ZM15.7318 7L15.6235 7.16814L15.731 7.23736L15.8389 7.1689L15.7318 7ZM13.6834 11.564L13.5831 11.391L13.5825 11.3913L13.6834 11.564ZM13.6835 11.5639L13.7838 11.737L13.7843 11.7367L13.6835 11.5639ZM13.6825 11.5645L13.7831 11.7374L13.7833 11.7372L13.6825 11.5645ZM11.067 13.0828L10.9674 13.2563L11.0673 13.3136L11.167 13.256L11.067 13.0828ZM2.21983 8L2.31949 7.8266L2.22625 7.77301L2.13012 7.82125L2.21983 8ZM1 8.71973L0.886911 8.55477L0.8 8.61436V8.71973H1ZM1 20.1371H0.8V20.1447L0.800579 20.1523L1 20.1371ZM1.0134 20.2421L0.816556 20.2775L0.832964 20.3688L0.913299 20.4153L1.0134 20.2421ZM10.9821 26L10.8821 26.1732L10.9646 26.2208L11.0535 26.1868L10.9821 26ZM20.9798 20.2511L21.1041 20.4077L21.1691 20.3561L21.1785 20.2737L20.9798 20.2511ZM20.9798 8.62809L21.1777 8.59982L21.1639 8.50319L21.0793 8.45461L20.9798 8.62809ZM19.885 8L19.9846 7.82652L19.8862 7.77007L19.7872 7.82555L19.885 8ZM13.6836 11.5639L13.583 11.391L13.5828 11.3912L13.6836 11.5639ZM9.85606 22.5511L9.83093 22.7495L10.0561 22.778V22.5511H9.85606ZM9.85606 15.1526H10.0561V15.0432L9.96391 14.9842L9.85606 15.1526ZM9.77116 22.5287L9.67146 22.7021L9.68301 22.7088L9.69534 22.7138L9.77116 22.5287ZM3.39721 18.863L3.241 18.9879L3.26466 19.0175L3.2975 19.0364L3.39721 18.863ZM3.37934 18.8273H3.57934V18.8105L3.57655 18.794L3.37934 18.8273ZM3.37934 18.8094L3.57655 18.8427L3.57934 18.8262V18.8094H3.37934ZM3.37934 17.0615L3.17934 17.061V17.0615H3.37934ZM3.39275 11.4958L3.19714 11.4541L3.1928 11.4745L3.19275 11.4954L3.39275 11.4958ZM3.40615 11.4578L3.35459 11.2646L3.26808 11.2877L3.22768 11.3676L3.40615 11.4578ZM3.53818 11.4979L3.65112 11.3328L3.65112 11.3328L3.53818 11.4979ZM3.56924 11.5182L3.46745 11.6904L3.46928 11.6914L3.56924 11.5182ZM4.99461 12.3407L4.89465 12.514L4.89486 12.5141L4.99461 12.3407ZM9.63265 15.0096L9.74062 14.8409L9.7324 14.8362L9.63265 15.0096ZM12.2734 15.1526L12.1725 14.9799L12.0734 15.0378V15.1526H12.2734ZM12.2577 20.4657L12.0577 20.4639V20.4657H12.2577ZM12.2565 22.4558L12.4557 22.4732L12.4557 22.4732L12.2565 22.4558ZM12.298 22.5422L12.22 22.7263L12.3069 22.7631L12.3905 22.7195L12.298 22.5422ZM12.4521 22.4617L12.5448 22.6392L12.5528 22.6345L12.4521 22.4617ZM14.5857 21.2189L14.6864 21.3917L14.6866 21.3916L14.5857 21.2189ZM18.4619 18.9524L18.3818 18.7692L18.3711 18.7739L18.3609 18.7798L18.4619 18.9524ZM18.6607 18.8116L18.807 18.948L18.8607 18.8904V18.8116H18.6607ZM18.6406 11.4645L18.7516 11.2982L18.7179 11.2757L18.6781 11.2681L18.6406 11.4645ZM18.587 11.4645L18.5495 11.2681L18.5158 11.2745L18.4861 11.2919L18.587 11.4645ZM17.8537 5.40421C17.1852 5.84187 16.5165 6.2658 15.8399 6.69468L16.0541 7.03252C16.7302 6.60389 17.4014 6.1784 18.0728 5.73888L17.8537 5.40421ZM17.8261 5.42667C17.8263 5.42635 17.8271 5.42506 17.829 5.4233L18.0975 5.71979C18.1282 5.69198 18.1538 5.65956 18.1739 5.62426L17.8261 5.42667ZM17.8055 5.57508C17.8065 5.57705 17.8074 5.57936 17.8082 5.58199L18.1918 5.46894C18.1847 5.4447 18.1755 5.42103 18.1643 5.39824L17.8055 5.57508ZM17.7902 5.59764L17.8745 5.65342L18.0953 5.3199L18.011 5.26412L17.7902 5.59764ZM10.9161 1.17757L17.7925 5.59911L18.0088 5.26266L11.1324 0.841122L10.9161 1.17757ZM10.9924 1.2C10.9654 1.2 10.9389 1.19221 10.9161 1.17757L11.1324 0.841123C11.0907 0.814275 11.0421 0.8 10.9924 0.8V1.2ZM10.9471 1.2H10.9924V0.8H10.9471V1.2ZM4.15102 5.58721L11.0549 1.16845L10.8393 0.831549L3.93539 5.2503L4.15102 5.58721ZM4.16923 5.57627C4.17146 5.57274 4.17362 5.5704 4.17525 5.56897L3.91116 5.26854C3.87973 5.29617 3.85278 5.32815 3.83077 5.3631L4.16923 5.57627ZM4.18094 5.3658C4.16985 5.35744 4.15916 5.34764 4.14912 5.33641L3.85088 5.60296C3.87788 5.63318 3.9077 5.66074 3.94003 5.68513L4.18094 5.3658ZM6.34397 6.75662L4.16869 5.35726L3.95228 5.69367L6.12756 7.09302L6.34397 6.75662ZM10.799 3.7112L6.12654 6.75728L6.34499 7.09236L11.0174 4.04628L10.799 3.7112ZM12.973 4.97742C12.3222 4.55566 11.6707 4.13342 11.0168 3.71076L10.7996 4.04671C11.4534 4.4692 12.1046 4.8913 12.7554 5.31309L12.973 4.97742ZM15.8401 6.83186C14.8819 6.21465 13.9282 5.59656 12.973 4.97742L12.7554 5.31309C13.7106 5.93217 14.6648 6.55057 15.6235 7.16814L15.8401 6.83186ZM15.8399 6.69468C15.7683 6.74009 15.6965 6.78556 15.6247 6.8311L15.8389 7.1689C15.9107 7.12339 15.9824 7.07793 16.0541 7.03252L15.8399 6.69468ZM13.7837 11.737L13.7838 11.737L13.5832 11.3909L13.5831 11.391L13.7837 11.737ZM13.7833 11.7372L13.7842 11.7367L13.5825 11.3913L13.5816 11.3918L13.7833 11.7372ZM11.167 13.256C12.0414 12.7506 12.9128 12.2437 13.7831 11.7374L13.5819 11.3917C12.7116 11.898 11.8407 12.4046 10.9669 12.9097L11.167 13.256ZM2.12017 8.1734C5.06029 9.86322 8.00936 11.5575 10.9674 13.2563L11.1666 12.9094C8.2086 11.2107 5.25958 9.51639 2.31949 7.8266L2.12017 8.1734ZM1.11309 8.88469C1.49547 8.62254 1.89521 8.38669 2.30954 8.17875L2.13012 7.82125C1.69959 8.03731 1.28423 8.28238 0.886911 8.55477L1.11309 8.88469ZM1.2 20.1371V8.71973H0.8V20.1371H1.2ZM1.21025 20.2068C1.20521 20.1787 1.20159 20.1504 1.19942 20.1219L0.800579 20.1523C0.803779 20.1943 0.809111 20.2361 0.816556 20.2775L1.21025 20.2068ZM11.082 25.8268C7.76365 23.912 4.44081 21.9927 1.11351 20.069L0.913299 20.4153C4.2407 22.3391 7.56364 24.2584 10.8821 26.1732L11.082 25.8268ZM20.8554 20.0945C20.8555 20.0943 20.846 20.1013 20.8189 20.1188C20.7945 20.1345 20.7614 20.1552 20.7197 20.1808C20.6364 20.232 20.5217 20.3011 20.3795 20.3856C20.0954 20.5547 19.704 20.7845 19.2408 21.0545C18.3146 21.5946 17.1025 22.2951 15.8896 22.9924C14.6767 23.6896 13.4632 24.3835 12.5342 24.9101C12.0696 25.1735 11.6764 25.3949 11.3902 25.5539C11.247 25.6335 11.1311 25.6972 11.0466 25.7426C11.0043 25.7653 10.9706 25.7831 10.9457 25.7958C10.9173 25.8103 10.9084 25.814 10.9106 25.8132L11.0535 26.1868C11.0876 26.1738 11.1563 26.1378 11.236 26.0949C11.3229 26.0482 11.4407 25.9835 11.5845 25.9036C11.8722 25.7437 12.2665 25.5217 12.7314 25.2581C13.6614 24.7309 14.8756 24.0367 16.089 23.3392C17.3023 22.6417 18.5151 21.9407 19.4423 21.4001C19.9059 21.1298 20.2984 20.8994 20.5841 20.7294C20.7268 20.6445 20.8435 20.5743 20.9292 20.5216C21.0087 20.4727 21.0748 20.431 21.1041 20.4077L20.8554 20.0945ZM20.7818 8.65636C20.7804 8.6467 20.781 8.64731 20.7819 8.67962C20.7825 8.70422 20.7832 8.73917 20.7838 8.78422C20.7851 8.87415 20.7863 9.00198 20.7875 9.1626C20.7898 9.48374 20.7918 9.93451 20.7936 10.4722C20.7971 11.5474 20.7993 12.9695 20.7999 14.3952C20.8004 15.821 20.7993 17.2504 20.7961 18.3404C20.7945 18.8855 20.7924 19.3454 20.7897 19.6775C20.7883 19.8436 20.7868 19.9773 20.7852 20.0736C20.7844 20.1218 20.7835 20.1599 20.7827 20.1878C20.7817 20.2194 20.7809 20.2297 20.781 20.2285L21.1785 20.2737C21.1818 20.2443 21.1836 20.1715 21.1851 20.0804C21.1868 19.9824 21.1883 19.8473 21.1896 19.6808C21.1924 19.3476 21.1945 18.8869 21.1961 18.3416C21.1993 17.251 21.2004 15.8211 21.1999 14.3951C21.1993 12.969 21.1971 11.5466 21.1936 10.4709C21.1918 9.93304 21.1898 9.48165 21.1874 9.15972C21.1863 8.99881 21.1851 8.86988 21.1838 8.77855C21.1831 8.73296 21.1824 8.69616 21.1817 8.66921C21.1812 8.64998 21.1805 8.61926 21.1777 8.59982L20.7818 8.65636ZM19.7855 8.17348L20.8802 8.80156L21.0793 8.45461L19.9846 7.82652L19.7855 8.17348ZM13.7841 11.7368C15.8475 10.5364 17.9043 9.33989 19.9828 8.17445L19.7872 7.82555C17.7054 8.9928 15.6459 10.1909 13.583 11.391L13.7841 11.7368ZM13.7843 11.7367L13.7843 11.7367L13.5828 11.3912L13.5827 11.3912L13.7843 11.7367ZM10.0561 22.5511V15.1526H9.65606V22.5511H10.0561ZM9.69534 22.7138C9.73877 22.7316 9.78436 22.7436 9.83093 22.7495L9.88119 22.3527C9.86945 22.3512 9.85795 22.3482 9.84699 22.3437L9.69534 22.7138ZM3.2975 19.0364L9.67146 22.7021L9.87087 22.3554L3.49692 18.6897L3.2975 19.0364ZM3.37934 18.8273C3.17934 18.8273 3.17934 18.8274 3.17934 18.8275C3.17934 18.8276 3.17934 18.8277 3.17934 18.8278C3.17934 18.828 3.17934 18.8281 3.17934 18.8283C3.17934 18.8287 3.17935 18.829 3.17935 18.8294C3.17936 18.8301 3.17937 18.8308 3.17938 18.8315C3.17941 18.8329 3.17946 18.8344 3.17952 18.8358C3.17965 18.8388 3.17983 18.8418 3.1801 18.8448C3.18062 18.851 3.18143 18.8574 3.18258 18.864C3.18488 18.8772 3.18848 18.891 3.19361 18.9051C3.20394 18.9335 3.21975 18.9613 3.241 18.9879L3.55342 18.7381C3.55681 18.7424 3.56367 18.7523 3.56954 18.7684C3.57244 18.7764 3.57492 18.7854 3.57666 18.7955C3.57753 18.8004 3.5782 18.8056 3.57866 18.8109C3.57888 18.8136 3.57905 18.8163 3.57917 18.819C3.57923 18.8204 3.57927 18.8217 3.5793 18.8231C3.57931 18.8238 3.57932 18.8245 3.57933 18.8252C3.57933 18.8255 3.57934 18.8259 3.57934 18.8262C3.57934 18.8264 3.57934 18.8266 3.57934 18.8268C3.57934 18.8268 3.57934 18.827 3.57934 18.827C3.57934 18.8271 3.57934 18.8273 3.37934 18.8273ZM3.18213 18.7761C3.17741 18.804 3.17741 18.8326 3.18213 18.8606L3.57655 18.794C3.57927 18.8101 3.57927 18.8266 3.57655 18.8427L3.18213 18.7761ZM3.17934 17.0615V18.8094H3.57934V17.0615H3.17934ZM3.19275 11.4954L3.17934 17.061L3.57934 17.0619L3.59274 11.4963L3.19275 11.4954ZM3.22768 11.3676C3.21381 11.395 3.20355 11.4241 3.19714 11.4541L3.58835 11.5375C3.58757 11.5412 3.58632 11.5448 3.58462 11.5481L3.22768 11.3676ZM3.65112 11.3328C3.62435 11.3145 3.50847 11.2235 3.35459 11.2646L3.45771 11.6511C3.44839 11.6536 3.43756 11.6546 3.42643 11.6537C3.41574 11.6528 3.40806 11.6502 3.40435 11.6488C3.40107 11.6475 3.40083 11.647 3.40493 11.6495C3.4095 11.6523 3.41476 11.6558 3.42524 11.663L3.65112 11.3328ZM3.67103 11.346C3.66734 11.3438 3.66257 11.3407 3.65112 11.3328L3.42524 11.663C3.43458 11.6694 3.45038 11.6803 3.46746 11.6904L3.67103 11.346ZM5.09458 12.1675L3.66921 11.345L3.46928 11.6914L4.89465 12.514L5.09458 12.1675ZM9.7324 14.8362L5.09436 12.1674L4.89486 12.5141L9.5329 15.1829L9.7324 14.8362ZM9.96391 14.9842L9.7405 14.8411L9.5248 15.178L9.74821 15.321L9.96391 14.9842ZM12.4734 15.3426V15.1526H12.0734V15.3426H12.4734ZM12.4734 16.8692V15.3426H12.0734V16.8692H12.4734ZM12.4577 20.4674C12.4682 19.2613 12.4734 18.0619 12.4734 16.8692H12.0734C12.0734 18.0608 12.0682 19.259 12.0577 20.4639L12.4577 20.4674ZM12.4577 22.4349V20.4657H12.0577V22.4349H12.4577ZM12.4557 22.4732C12.4562 22.4679 12.4577 22.4519 12.4577 22.4349H12.0577C12.0577 22.4322 12.0579 22.4309 12.0578 22.4318C12.0577 22.4328 12.0576 22.4343 12.0573 22.4383L12.4557 22.4732ZM12.3759 22.358C12.384 22.3614 12.3994 22.3695 12.4153 22.386C12.4319 22.4033 12.443 22.4235 12.4491 22.4429C12.4547 22.4606 12.4551 22.4741 12.4551 22.4782C12.4552 22.4813 12.4549 22.4828 12.4557 22.4732L12.0573 22.4383C12.0566 22.4458 12.0488 22.5038 12.0678 22.5637C12.0926 22.642 12.1501 22.6967 12.22 22.7263L12.3759 22.358ZM12.3596 22.2844L12.2054 22.3649L12.3905 22.7195L12.5447 22.639L12.3596 22.2844ZM14.485 21.0461L12.3514 22.2889L12.5528 22.6345L14.6864 21.3917L14.485 21.0461ZM18.3609 18.7798L14.4847 21.0463L14.6866 21.3916L18.5629 19.1251L18.3609 18.7798ZM18.5145 18.6752C18.4771 18.7153 18.432 18.7473 18.3818 18.7692L18.542 19.1357C18.6422 19.0919 18.7324 19.028 18.807 18.948L18.5145 18.6752ZM18.4607 11.5003V18.8116H18.8607V11.5003H18.4607ZM18.5297 11.6309C18.4945 11.6075 18.4771 11.5755 18.4692 11.5529C18.4654 11.5417 18.4634 11.5318 18.4623 11.5236C18.4617 11.5194 18.4613 11.5154 18.4611 11.5116C18.461 11.5097 18.4609 11.5078 18.4608 11.5059C18.4608 11.505 18.4608 11.5041 18.4608 11.5031C18.4607 11.5027 18.4607 11.5022 18.4607 11.5017C18.4607 11.5015 18.4607 11.5012 18.4607 11.501C18.4607 11.5009 18.4607 11.5008 18.4607 11.5007C18.4607 11.5006 18.4607 11.5005 18.4607 11.5005C18.4607 11.5004 18.4607 11.5003 18.6607 11.5003C18.8607 11.5003 18.8607 11.5002 18.8607 11.5001C18.8607 11.5001 18.8607 11.5 18.8607 11.5C18.8607 11.4998 18.8607 11.4997 18.8607 11.4996C18.8607 11.4994 18.8607 11.4991 18.8607 11.4989C18.8607 11.4984 18.8607 11.4979 18.8607 11.4974C18.8607 11.4964 18.8607 11.4953 18.8606 11.4942C18.8606 11.492 18.8605 11.4896 18.8603 11.487C18.86 11.4819 18.8595 11.4761 18.8586 11.4696C18.8569 11.4569 18.8536 11.4404 18.8472 11.4221C18.8344 11.3849 18.8069 11.335 18.7516 11.2982L18.5297 11.6309ZM18.6245 11.661C18.6175 11.6623 18.6102 11.6623 18.6031 11.661L18.6781 11.2681C18.6356 11.26 18.592 11.26 18.5495 11.2681L18.6245 11.661ZM12.3743 15.3253L18.6879 11.6372L18.4861 11.2919L12.1725 14.9799L12.3743 15.3253Z" fill="url(#paint1_linear_802_117635)" mask="url(#path-2-outside-1_802_117635)"/>
<defs>
<linearGradient id="paint0_linear_802_117635" x1="11" y1="1" x2="16.354" y2="24.7954" gradientUnits="userSpaceOnUse">
<stop stop-color="#783BF3"/>
<stop offset="1" stop-color="#BF0EFD"/>
</linearGradient>
<linearGradient id="paint1_linear_802_117635" x1="11" y1="1" x2="11" y2="26" gradientUnits="userSpaceOnUse">
<stop stop-color="#7A3BF4"/>
<stop offset="1" stop-color="#BD11FE"/>
</linearGradient>
</defs>
</svg>
