<svg width="24" height="24" viewBox="0 0 24 24" fill="none" xmlns="http://www.w3.org/2000/svg">
<path fill-rule="evenodd" clip-rule="evenodd" d="M2.75 6C2.75 4.20507 4.20507 2.75 6 2.75H9C9.41421 2.75 9.75 2.41421 9.75 2C9.75 1.58579 9.41421 1.25 9 1.25H6C3.37665 1.25 1.25 3.37665 1.25 6V9C1.25 9.41421 1.58579 9.75 2 9.75C2.41421 9.75 2.75 9.41421 2.75 9V6ZM21.25 6C21.25 4.20507 19.7949 2.75 18 2.75H15C14.5858 2.75 14.25 2.41421 14.25 2C14.25 1.58579 14.5858 1.25 15 1.25H18C20.6234 1.25 22.75 3.37665 22.75 6V9C22.75 9.41421 22.4142 9.75 22 9.75C21.5858 9.75 21.25 9.41421 21.25 9V6ZM6 21.25C4.20507 21.25 2.75 19.7949 2.75 18V15C2.75 14.5858 2.41421 14.25 2 14.25C1.58579 14.25 1.25 14.5858 1.25 15V18C1.25 20.6234 3.37665 22.75 6 22.75H9C9.41421 22.75 9.75 22.4142 9.75 22C9.75 21.5858 9.41421 21.25 9 21.25H6ZM21.25 18C21.25 19.7949 19.7949 21.25 18 21.25H15C14.5858 21.25 14.25 21.5858 14.25 22C14.25 22.4142 14.5858 22.75 15 22.75H18C20.6234 22.75 22.75 20.6234 22.75 18V15C22.75 14.5858 22.4142 14.25 22 14.25C21.5858 14.25 21.25 14.5858 21.25 15V18Z" fill="white"/>
</svg>
