<svg width="25" height="24" viewBox="0 0 25 24" fill="none" xmlns="http://www.w3.org/2000/svg">
<path fill-rule="evenodd" clip-rule="evenodd" d="M10.2651 6.52775C9.97223 6.23486 9.97223 5.75998 10.2651 5.46709L11.3329 4.39936C13.7689 1.96331 17.744 1.97163 20.1717 4.39936C22.6077 6.83541 22.5994 10.8105 20.1717 13.2382L19.104 14.3059C18.8111 14.5988 18.3362 14.5988 18.0433 14.3059C17.7504 14.013 17.7504 13.5382 18.0433 13.2453L19.111 12.1775C20.9542 10.3343 20.96 7.30903 19.111 5.46002C17.2678 3.61682 14.2425 3.61101 12.3935 5.46002L11.3258 6.52775C11.0329 6.82064 10.558 6.82064 10.2651 6.52775ZM4.96929 10.7629L4.97025 10.762L6.03091 9.7013C6.32381 9.40841 6.79868 9.40841 7.09157 9.7013C7.38447 9.99419 7.38447 10.4691 7.09157 10.762L6.0314 11.8221C5.14276 12.7143 4.6438 13.9222 4.6438 15.1814C4.6438 16.4406 5.14275 17.6485 6.03139 18.5406C7.87463 20.3833 10.8996 20.389 12.7484 18.5401L13.8091 17.4795C14.102 17.1866 14.5769 17.1866 14.8697 17.4795C15.1626 17.7724 15.1626 18.2472 14.8697 18.5401L13.8091 19.6008C11.373 22.0368 7.39798 22.0285 4.97025 19.6008L4.96929 19.5998C3.80022 18.4265 3.1438 16.8377 3.1438 15.1814C3.1438 13.5251 3.80022 11.9362 4.96929 10.7629ZM9.21288 14.2975C8.91999 14.5904 8.91999 15.0653 9.21288 15.3582C9.50577 15.6511 9.98065 15.6511 10.2735 15.3582L15.9304 9.70134C16.2233 9.40845 16.2233 8.93357 15.9304 8.64068C15.6375 8.34779 15.1626 8.34779 14.8697 8.64068L9.21288 14.2975Z" fill="white"/>
</svg>
